<?xml version="1.0" encoding="utf-8"?>
<!-- Generator: Adobe Illustrator 27.5.0, SVG Export Plug-In . SVG Version: 6.00 Build 0)  -->
<svg version="1.1" id="Layer_1" xmlns="http://www.w3.org/2000/svg" xmlns:xlink="http://www.w3.org/1999/xlink" x="0px" y="0px"
	 viewBox="0 0 288 288" style="enable-background:new 0 0 288 288;" xml:space="preserve">
<g id="Film_01">
</g>
<g id="New_Symbol_8">
</g>
<g>
	<rect x="-0.001" style="fill-rule:evenodd;clip-rule:evenodd;fill:#FAFAFA;" width="288" height="288"/>
	<rect x="-0.001" y="144" style="fill-rule:evenodd;clip-rule:evenodd;fill:#181C21;" width="288" height="144"/>
	<rect x="-0.001" style="fill-rule:evenodd;clip-rule:evenodd;fill:#FFFFFF;" width="288" height="144"/>
	<g>
		<g>
			<g>
				<path style="fill:#181C21;" d="M137.253,89.615v-6.449h2.752c1.227,0,1.84,0.516,1.84,1.547c0,0.839-0.6,1.46-1.799,1.863
					l2.215,3.039h-1.102l-2.052-2.9V86.17c1.233-0.195,1.849-0.67,1.849-1.421c0-0.596-0.342-0.894-1.027-0.894h-1.841v5.76H137.253
					z"/>
				<path style="fill:#181C21;" d="M147.356,83.166v0.676h-3.383v2.166h3.226v0.676h-3.226v2.256h3.451v0.676h-4.285v-6.449H147.356
					z"/>
				<path style="fill:#181C21;" d="M148.899,89.615h-0.865l2.737-6.449h0.925l2.752,6.449h-0.926l-0.834-2.029h-2.133l0.229-0.676
					h1.624l-1.205-2.924L148.899,89.615z"/>
				<path style="fill:#181C21;" d="M156.161,83.166v5.773h3.375v0.676h-4.209v-6.449H156.161z"/>
				<path style="fill:#181C21;" d="M167.001,83.166v0.676h-3.383v2.166h3.225v0.676h-3.225v2.256h3.45v0.676h-4.285v-6.449H167.001z
					"/>
				<path style="fill:#181C21;" d="M168.241,89.391v-0.768c0.676,0.241,1.407,0.361,2.191,0.361c1.109,0,1.665-0.406,1.665-1.218
					c0-0.692-0.409-1.038-1.227-1.038h-0.83c-1.35,0-2.024-0.586-2.024-1.759c0-1.232,0.864-1.849,2.593-1.849
					c0.752,0,1.451,0.09,2.098,0.27v0.768c-0.646-0.24-1.346-0.361-2.098-0.361c-1.172,0-1.758,0.391-1.758,1.173
					c0,0.692,0.396,1.038,1.189,1.038h0.83c1.375,0,2.063,0.586,2.063,1.759c0,1.263-0.834,1.894-2.5,1.894
					C169.648,89.66,168.917,89.57,168.241,89.391z"/>
				<path style="fill:#181C21;" d="M178.503,83.166v0.676h-2.03v5.773h-0.835v-5.773h-2.029v-0.676H178.503z"/>
				<path style="fill:#181C21;" d="M179.03,89.615h-0.867l2.738-6.449h0.925l2.751,6.449h-0.924l-0.835-2.029h-2.134l0.23-0.676
					h1.623l-1.203-2.924L179.03,89.615z"/>
				<path style="fill:#181C21;" d="M189.134,83.166v0.676h-2.029v5.773h-0.835v-5.773h-2.03v-0.676H189.134z"/>
				<path style="fill:#181C21;" d="M194.343,83.166v0.676h-3.383v2.166h3.225v0.676h-3.225v2.256h3.451v0.676h-4.285v-6.449H194.343
					z"/>
			</g>
			<g>
				<path style="fill:#181C21;" d="M134.505,92.414l0.49,0.957l0.499-0.957h0.417l-0.723,1.294v0.694h-0.383v-0.7l-0.721-1.288
					H134.505z"/>
				<path style="fill:#181C21;" d="M137.944,94.416c-0.14,0-0.268-0.028-0.383-0.085c-0.116-0.058-0.216-0.133-0.299-0.228
					c-0.083-0.094-0.146-0.201-0.191-0.322c-0.045-0.122-0.068-0.246-0.068-0.373c0-0.133,0.024-0.26,0.072-0.381
					c0.047-0.121,0.113-0.229,0.199-0.322c0.084-0.094,0.185-0.168,0.301-0.223c0.115-0.055,0.242-0.082,0.378-0.082
					c0.14,0,0.268,0.029,0.384,0.088c0.115,0.059,0.215,0.136,0.297,0.231c0.082,0.096,0.145,0.204,0.189,0.325
					c0.045,0.122,0.068,0.245,0.068,0.37c0,0.133-0.024,0.259-0.072,0.379c-0.047,0.121-0.113,0.227-0.197,0.319
					c-0.084,0.093-0.184,0.167-0.299,0.222C138.207,94.389,138.081,94.416,137.944,94.416z M137.393,93.408
					c0,0.086,0.012,0.169,0.037,0.249c0.025,0.081,0.062,0.151,0.109,0.213c0.047,0.062,0.105,0.111,0.175,0.148
					c0.069,0.038,0.148,0.056,0.235,0.056c0.09,0,0.168-0.019,0.236-0.057c0.068-0.039,0.126-0.09,0.172-0.152
					c0.047-0.064,0.083-0.135,0.107-0.215c0.023-0.08,0.036-0.16,0.036-0.242c0-0.086-0.013-0.169-0.039-0.25
					c-0.026-0.08-0.064-0.15-0.11-0.213c-0.049-0.06-0.105-0.109-0.174-0.146c-0.068-0.036-0.145-0.055-0.231-0.055
					c-0.089,0-0.169,0.02-0.236,0.058c-0.068,0.038-0.126,0.089-0.174,0.151c-0.048,0.063-0.083,0.133-0.108,0.213
					C137.405,93.245,137.393,93.326,137.393,93.408z"/>
				<path style="fill:#181C21;" d="M141.148,94.074c0.092,0,0.169-0.018,0.231-0.056c0.063-0.037,0.113-0.086,0.15-0.146
					c0.039-0.06,0.066-0.129,0.082-0.206c0.016-0.077,0.023-0.157,0.023-0.239v-1.014h0.384v1.014c0,0.137-0.017,0.264-0.049,0.384
					c-0.032,0.12-0.084,0.224-0.154,0.313c-0.069,0.09-0.16,0.16-0.271,0.213c-0.109,0.053-0.241,0.078-0.395,0.078
					c-0.158,0-0.293-0.027-0.404-0.082c-0.111-0.055-0.201-0.128-0.27-0.219c-0.069-0.09-0.119-0.195-0.149-0.314
					c-0.031-0.12-0.047-0.244-0.047-0.373v-1.014h0.387v1.014c0,0.084,0.008,0.164,0.023,0.242c0.016,0.078,0.043,0.146,0.082,0.206
					c0.037,0.06,0.088,0.108,0.149,0.144C140.983,94.057,141.059,94.074,141.148,94.074z"/>
				<path style="fill:#181C21;" d="M143.526,94.402v-1.988h0.879c0.092,0,0.176,0.02,0.254,0.057c0.077,0.039,0.145,0.09,0.2,0.152
					c0.056,0.063,0.1,0.133,0.132,0.213c0.031,0.078,0.047,0.158,0.047,0.238c0,0.129-0.031,0.246-0.096,0.352
					c-0.064,0.106-0.152,0.182-0.262,0.229l0.467,0.748h-0.436l-0.417-0.666h-0.381v0.666H143.526z M143.913,93.396h0.484
					c0.035,0,0.068-0.008,0.1-0.025c0.03-0.016,0.057-0.039,0.079-0.068c0.023-0.028,0.04-0.063,0.054-0.101
					c0.013-0.039,0.02-0.082,0.02-0.127c0-0.046-0.008-0.089-0.022-0.129c-0.015-0.039-0.035-0.072-0.061-0.101
					c-0.024-0.029-0.054-0.051-0.087-0.067c-0.033-0.016-0.066-0.023-0.1-0.023h-0.467V93.396z"/>
				<path style="fill:#181C21;" d="M149.732,92.753H149.1v1.649h-0.387v-1.649h-0.636v-0.339h1.655V92.753z"/>
				<path style="fill:#181C21;" d="M150.716,94.402l0.783-1.988h0.314l0.781,1.988h-0.408l-0.183-0.496h-0.697l-0.183,0.496H150.716
					z M151.657,92.831l-0.286,0.804h0.563L151.657,92.831z"/>
				<path style="fill:#181C21;" d="M155.261,94.178c-0.153,0.159-0.33,0.238-0.529,0.238c-0.127,0-0.246-0.027-0.359-0.084
					c-0.111-0.056-0.209-0.131-0.292-0.225c-0.083-0.095-0.148-0.203-0.196-0.326c-0.047-0.124-0.071-0.252-0.071-0.385
					c0-0.136,0.024-0.264,0.071-0.385c0.048-0.12,0.114-0.226,0.199-0.316c0.085-0.09,0.185-0.162,0.299-0.216
					c0.115-0.054,0.24-0.079,0.375-0.079c0.181,0,0.336,0.039,0.465,0.117c0.129,0.078,0.226,0.184,0.291,0.316l-0.289,0.213
					c-0.048-0.1-0.115-0.175-0.199-0.227c-0.086-0.053-0.18-0.078-0.281-0.078c-0.083,0-0.157,0.018-0.223,0.053
					c-0.066,0.035-0.123,0.084-0.17,0.146c-0.047,0.062-0.084,0.133-0.109,0.213c-0.026,0.08-0.039,0.165-0.039,0.255
					c0,0.094,0.014,0.181,0.042,0.262c0.028,0.081,0.067,0.152,0.117,0.211c0.051,0.061,0.11,0.107,0.179,0.143
					c0.067,0.034,0.143,0.051,0.225,0.051c0.184,0,0.349-0.09,0.496-0.272v-0.14h-0.4V93.38h0.719v1.022h-0.318V94.178z"/>
				<path style="fill:#181C21;" d="M157.033,94.402v-1.988h0.387v1.649h1.014v0.339H157.033z"/>
				<path style="fill:#181C21;" d="M159.803,94.402v-1.986h0.387v1.986H159.803z"/>
				<path style="fill:#181C21;" d="M162.11,93.128v1.274h-0.387v-1.988h0.301l1.035,1.305v-1.303h0.387v1.986h-0.314L162.11,93.128z
					"/>
				<path style="fill:#181C21;" d="M166.362,94.063v0.339h-1.381v-1.988h1.355v0.339h-0.969v0.479h0.837v0.313h-0.837v0.519H166.362
					z"/>
				<path style="fill:#181C21;" d="M170.77,92.936c-0.014-0.014-0.037-0.031-0.072-0.054c-0.034-0.022-0.076-0.044-0.125-0.065
					c-0.05-0.021-0.104-0.04-0.162-0.055c-0.057-0.016-0.116-0.023-0.176-0.023c-0.106,0-0.186,0.02-0.238,0.059
					c-0.053,0.04-0.078,0.096-0.078,0.166c0,0.041,0.01,0.075,0.029,0.102c0.02,0.027,0.048,0.051,0.086,0.072
					c0.037,0.021,0.084,0.039,0.141,0.056c0.057,0.017,0.123,0.034,0.197,0.054c0.098,0.025,0.186,0.054,0.266,0.084
					c0.078,0.029,0.146,0.066,0.201,0.111c0.055,0.045,0.098,0.099,0.127,0.161c0.03,0.063,0.045,0.14,0.045,0.231
					c0,0.106-0.02,0.197-0.061,0.273c-0.039,0.075-0.094,0.137-0.16,0.184c-0.067,0.046-0.146,0.08-0.235,0.102
					c-0.09,0.021-0.183,0.032-0.28,0.032c-0.149,0-0.297-0.022-0.442-0.067c-0.146-0.045-0.276-0.107-0.392-0.19l0.17-0.333
					c0.018,0.017,0.047,0.039,0.092,0.065c0.043,0.027,0.096,0.054,0.155,0.081c0.06,0.027,0.126,0.051,0.198,0.068
					c0.073,0.02,0.148,0.029,0.225,0.029c0.213,0,0.318-0.068,0.318-0.205c0-0.045-0.012-0.082-0.035-0.111
					c-0.025-0.031-0.059-0.057-0.104-0.079c-0.045-0.022-0.1-0.043-0.163-0.062c-0.063-0.019-0.134-0.039-0.213-0.059
					c-0.095-0.026-0.178-0.055-0.247-0.086c-0.07-0.031-0.129-0.066-0.176-0.107c-0.047-0.041-0.082-0.09-0.105-0.146
					c-0.023-0.055-0.035-0.121-0.035-0.198c0-0.101,0.02-0.19,0.057-0.269c0.037-0.078,0.09-0.145,0.155-0.196
					c0.066-0.052,0.143-0.092,0.231-0.119c0.088-0.026,0.182-0.04,0.283-0.04c0.14,0,0.268,0.021,0.386,0.065
					c0.118,0.044,0.22,0.096,0.308,0.155L170.77,92.936z"/>
				<path style="fill:#181C21;" d="M172.425,94.402v-1.988h0.844c0.091,0,0.176,0.02,0.253,0.057c0.077,0.039,0.143,0.09,0.2,0.152
					c0.057,0.063,0.1,0.133,0.132,0.213c0.032,0.078,0.048,0.158,0.048,0.238c0,0.084-0.016,0.166-0.045,0.246
					c-0.03,0.079-0.072,0.149-0.127,0.211c-0.054,0.061-0.119,0.111-0.195,0.148c-0.076,0.037-0.16,0.057-0.252,0.057h-0.471v0.666
					H172.425z M172.811,93.396h0.448c0.071,0,0.13-0.028,0.178-0.086c0.048-0.059,0.071-0.137,0.071-0.236
					c0-0.05-0.008-0.096-0.023-0.135c-0.015-0.041-0.034-0.074-0.059-0.103s-0.053-0.05-0.085-0.063
					c-0.033-0.014-0.066-0.021-0.1-0.021h-0.432V93.396z"/>
				<path style="fill:#181C21;" d="M174.94,94.402l0.783-1.988h0.314l0.781,1.988h-0.408l-0.183-0.496h-0.697l-0.183,0.496H174.94z
					 M175.882,92.831l-0.286,0.804h0.563L175.882,92.831z"/>
				<path style="fill:#181C21;" d="M178.034,93.395c0-0.121,0.021-0.242,0.064-0.36c0.043-0.118,0.105-0.225,0.186-0.317
					c0.081-0.094,0.181-0.17,0.298-0.227c0.118-0.058,0.252-0.088,0.404-0.088c0.177,0,0.33,0.041,0.46,0.121
					c0.13,0.08,0.226,0.185,0.287,0.313l-0.297,0.204c-0.023-0.056-0.052-0.104-0.087-0.141c-0.035-0.039-0.074-0.069-0.116-0.092
					c-0.042-0.021-0.085-0.039-0.13-0.049c-0.045-0.01-0.088-0.016-0.129-0.016c-0.092,0-0.172,0.02-0.241,0.058
					c-0.069,0.039-0.126,0.09-0.172,0.153c-0.046,0.063-0.081,0.134-0.105,0.212c-0.022,0.08-0.034,0.159-0.034,0.237
					c0,0.088,0.013,0.173,0.04,0.253c0.027,0.082,0.066,0.153,0.115,0.215c0.049,0.062,0.109,0.111,0.178,0.148
					c0.069,0.037,0.145,0.057,0.227,0.057c0.043,0,0.088-0.006,0.133-0.018c0.044-0.012,0.088-0.029,0.129-0.053
					c0.043-0.024,0.082-0.056,0.117-0.094c0.035-0.039,0.064-0.085,0.086-0.139l0.316,0.182c-0.029,0.074-0.072,0.141-0.13,0.197
					c-0.057,0.057-0.122,0.106-0.194,0.145c-0.072,0.039-0.149,0.068-0.229,0.09c-0.081,0.02-0.159,0.03-0.238,0.03
					c-0.138,0-0.265-0.03-0.38-0.089c-0.114-0.061-0.213-0.139-0.297-0.234c-0.082-0.096-0.146-0.205-0.193-0.328
					C178.058,93.646,178.034,93.521,178.034,93.395z"/>
				<path style="fill:#181C21;" d="M182.53,94.063v0.339h-1.381v-1.988h1.355v0.339h-0.969v0.479h0.837v0.313h-0.837v0.519H182.53z"
					/>
				<path style="fill:#181C21;" d="M187.423,92.414v1.988h-0.385v-0.849h-0.901v0.849h-0.387v-1.988h0.387v0.804h0.901v-0.804
					H187.423z"/>
				<path style="fill:#181C21;" d="M190.337,94.063v0.339h-1.381v-1.988h1.357v0.339h-0.97v0.479h0.838v0.313h-0.838v0.519H190.337z
					"/>
				<path style="fill:#181C21;" d="M191.768,94.402v-1.988h0.879c0.092,0,0.177,0.02,0.254,0.057
					c0.078,0.039,0.145,0.09,0.201,0.152c0.055,0.063,0.1,0.133,0.131,0.213c0.031,0.078,0.048,0.158,0.048,0.238
					c0,0.129-0.032,0.246-0.097,0.352c-0.064,0.106-0.152,0.182-0.262,0.229l0.467,0.748h-0.436l-0.418-0.666h-0.381v0.666H191.768z
					 M192.155,93.396h0.484c0.035,0,0.068-0.008,0.1-0.025c0.031-0.016,0.057-0.039,0.08-0.068c0.021-0.028,0.039-0.063,0.053-0.101
					c0.014-0.039,0.02-0.082,0.02-0.127c0-0.046-0.008-0.089-0.021-0.129c-0.016-0.039-0.035-0.072-0.061-0.101
					c-0.025-0.029-0.055-0.051-0.088-0.067c-0.032-0.016-0.064-0.023-0.099-0.023h-0.468V93.396z"/>
				<path style="fill:#181C21;" d="M196.157,94.063v0.339h-1.381v-1.988h1.355v0.339h-0.969v0.479h0.838v0.313h-0.838v0.519H196.157
					z"/>
			</g>
		</g>
		<g>
			<g>
				<polygon style="fill:#181C21;" points="99.717,93.822 99.717,80.998 122.182,64.59 128.376,69.115 134.582,64.582 
					122.182,55.525 92.396,77.279 92.396,93.822 				"/>
			</g>
			<g>
				<polygon style="fill:#181C21;" points="123.978,93.822 123.978,80.998 146.443,64.59 158.844,64.582 146.443,55.525 
					116.657,77.279 116.657,93.822 				"/>
			</g>
		</g>
	</g>
	<g>
		<g>
			<g>
				<path style="fill:#BAA360;" d="M137.253,230.032v-6.45h2.752c1.227,0,1.84,0.516,1.84,1.547c0,0.84-0.6,1.461-1.799,1.863
					l2.215,3.04h-1.102l-2.052-2.9v-0.546c1.233-0.195,1.849-0.669,1.849-1.42c0-0.596-0.342-0.893-1.027-0.893h-1.841v5.76H137.253
					z"/>
				<path style="fill:#BAA360;" d="M147.356,223.582v0.677h-3.383v2.165h3.226v0.677h-3.226v2.255h3.451v0.677h-4.285v-6.45H147.356
					z"/>
				<path style="fill:#BAA360;" d="M148.899,230.032h-0.865l2.737-6.45h0.925l2.752,6.45h-0.926l-0.834-2.03h-2.133l0.229-0.676
					h1.624l-1.205-2.923L148.899,230.032z"/>
				<path style="fill:#BAA360;" d="M156.161,223.582v5.773h3.375v0.677h-4.209v-6.45H156.161z"/>
				<path style="fill:#BAA360;" d="M167.001,223.582v0.677h-3.383v2.165h3.225v0.677h-3.225v2.255h3.45v0.677h-4.285v-6.45H167.001z
					"/>
				<path style="fill:#BAA360;" d="M168.241,229.807v-0.767c0.676,0.241,1.407,0.36,2.191,0.36c1.109,0,1.665-0.406,1.665-1.217
					c0-0.692-0.409-1.038-1.227-1.038h-0.83c-1.35,0-2.024-0.587-2.024-1.759c0-1.232,0.864-1.85,2.593-1.85
					c0.752,0,1.451,0.09,2.098,0.271v0.767c-0.646-0.24-1.346-0.36-2.098-0.36c-1.172,0-1.758,0.391-1.758,1.173
					c0,0.691,0.396,1.037,1.189,1.037h0.83c1.375,0,2.063,0.586,2.063,1.76c0,1.262-0.834,1.894-2.5,1.894
					C169.648,230.077,168.917,229.987,168.241,229.807z"/>
				<path style="fill:#BAA360;" d="M178.503,223.582v0.677h-2.03v5.773h-0.835v-5.773h-2.029v-0.677H178.503z"/>
				<path style="fill:#BAA360;" d="M179.03,230.032h-0.867l2.738-6.45h0.925l2.751,6.45h-0.924l-0.835-2.03h-2.134l0.23-0.676h1.623
					l-1.203-2.923L179.03,230.032z"/>
				<path style="fill:#BAA360;" d="M189.134,223.582v0.677h-2.029v5.773h-0.835v-5.773h-2.03v-0.677H189.134z"/>
				<path style="fill:#BAA360;" d="M194.343,223.582v0.677h-3.383v2.165h3.225v0.677h-3.225v2.255h3.451v0.677h-4.285v-6.45H194.343
					z"/>
			</g>
			<g>
				<path style="fill:#BAA360;" d="M134.505,232.83l0.49,0.958l0.499-0.958h0.417l-0.723,1.295v0.693h-0.383v-0.699l-0.721-1.289
					H134.505z"/>
				<path style="fill:#BAA360;" d="M137.944,234.833c-0.14,0-0.268-0.028-0.383-0.085c-0.116-0.058-0.216-0.133-0.299-0.228
					c-0.083-0.095-0.146-0.202-0.191-0.323c-0.045-0.121-0.068-0.246-0.068-0.373c0-0.133,0.024-0.26,0.072-0.381
					c0.047-0.121,0.113-0.229,0.199-0.322c0.084-0.093,0.185-0.167,0.301-0.223c0.115-0.055,0.242-0.082,0.378-0.082
					c0.14,0,0.268,0.029,0.384,0.088c0.115,0.059,0.215,0.137,0.297,0.232c0.082,0.095,0.145,0.204,0.189,0.325
					c0.045,0.121,0.068,0.244,0.068,0.369c0,0.133-0.024,0.26-0.072,0.379c-0.047,0.121-0.113,0.227-0.197,0.32
					c-0.084,0.092-0.184,0.166-0.299,0.221C138.207,234.805,138.081,234.833,137.944,234.833z M137.393,233.824
					c0,0.086,0.012,0.17,0.037,0.25c0.025,0.08,0.062,0.15,0.109,0.213c0.047,0.061,0.105,0.111,0.175,0.148
					c0.069,0.037,0.148,0.056,0.235,0.056c0.09,0,0.168-0.018,0.236-0.058c0.068-0.038,0.126-0.089,0.172-0.152
					c0.047-0.063,0.083-0.135,0.107-0.215c0.023-0.079,0.036-0.16,0.036-0.242c0-0.086-0.013-0.168-0.039-0.249
					c-0.026-0.08-0.064-0.151-0.11-0.213c-0.049-0.062-0.105-0.11-0.174-0.147c-0.068-0.035-0.145-0.055-0.231-0.055
					c-0.089,0-0.169,0.02-0.236,0.059c-0.068,0.037-0.126,0.088-0.174,0.15c-0.048,0.063-0.083,0.134-0.108,0.213
					C137.405,233.662,137.393,233.742,137.393,233.824z"/>
				<path style="fill:#BAA360;" d="M141.148,234.491c0.092,0,0.169-0.018,0.231-0.056c0.063-0.037,0.113-0.086,0.15-0.146
					c0.039-0.059,0.066-0.128,0.082-0.205c0.016-0.078,0.023-0.158,0.023-0.24v-1.014h0.384v1.014c0,0.137-0.017,0.265-0.049,0.385
					c-0.032,0.119-0.084,0.224-0.154,0.313c-0.069,0.09-0.16,0.161-0.271,0.213c-0.109,0.053-0.241,0.079-0.395,0.079
					c-0.158,0-0.293-0.028-0.404-0.083c-0.111-0.055-0.201-0.127-0.27-0.219c-0.069-0.09-0.119-0.195-0.149-0.314
					c-0.031-0.119-0.047-0.244-0.047-0.373v-1.014h0.387v1.014c0,0.084,0.008,0.165,0.023,0.242
					c0.016,0.078,0.043,0.146,0.082,0.207c0.037,0.059,0.088,0.107,0.149,0.143C140.983,234.473,141.059,234.491,141.148,234.491z"
					/>
				<path style="fill:#BAA360;" d="M143.526,234.818v-1.988h0.879c0.092,0,0.176,0.02,0.254,0.058
					c0.077,0.038,0.145,0.089,0.2,0.151c0.056,0.063,0.1,0.133,0.132,0.213c0.031,0.079,0.047,0.159,0.047,0.239
					c0,0.129-0.031,0.246-0.096,0.352c-0.064,0.105-0.152,0.182-0.262,0.229l0.467,0.747h-0.436l-0.417-0.666h-0.381v0.666H143.526z
					 M143.913,233.814h0.484c0.035,0,0.068-0.009,0.1-0.025c0.03-0.017,0.057-0.04,0.079-0.068c0.023-0.028,0.04-0.063,0.054-0.102
					c0.013-0.039,0.02-0.081,0.02-0.126c0-0.046-0.008-0.089-0.022-0.129c-0.015-0.039-0.035-0.073-0.061-0.103
					c-0.024-0.028-0.054-0.051-0.087-0.066c-0.033-0.016-0.066-0.023-0.1-0.023h-0.467V233.814z"/>
				<path style="fill:#BAA360;" d="M149.732,233.17H149.1v1.648h-0.387v-1.648h-0.636v-0.34h1.655V233.17z"/>
				<path style="fill:#BAA360;" d="M150.716,234.818l0.783-1.988h0.314l0.781,1.988h-0.408l-0.183-0.495h-0.697l-0.183,0.495
					H150.716z M151.657,233.248l-0.286,0.803h0.563L151.657,233.248z"/>
				<path style="fill:#BAA360;" d="M155.261,234.595c-0.153,0.159-0.33,0.238-0.529,0.238c-0.127,0-0.246-0.028-0.359-0.084
					c-0.111-0.056-0.209-0.132-0.292-0.226c-0.083-0.094-0.148-0.203-0.196-0.326c-0.047-0.123-0.071-0.252-0.071-0.384
					c0-0.136,0.024-0.265,0.071-0.386c0.048-0.119,0.114-0.225,0.199-0.316c0.085-0.09,0.185-0.162,0.299-0.215
					c0.115-0.054,0.24-0.08,0.375-0.08c0.181,0,0.336,0.039,0.465,0.117c0.129,0.078,0.226,0.185,0.291,0.316l-0.289,0.213
					c-0.048-0.099-0.115-0.174-0.199-0.227c-0.086-0.053-0.18-0.078-0.281-0.078c-0.083,0-0.157,0.018-0.223,0.053
					c-0.066,0.035-0.123,0.084-0.17,0.146c-0.047,0.061-0.084,0.133-0.109,0.213c-0.026,0.08-0.039,0.164-0.039,0.254
					c0,0.094,0.014,0.182,0.042,0.262c0.028,0.082,0.067,0.152,0.117,0.212c0.051,0.06,0.11,0.106,0.179,0.142
					c0.067,0.035,0.143,0.052,0.225,0.052c0.184,0,0.349-0.091,0.496-0.271v-0.14h-0.4v-0.283h0.719v1.021h-0.318V234.595z"/>
				<path style="fill:#BAA360;" d="M157.033,234.818v-1.988h0.387v1.65h1.014v0.338H157.033z"/>
				<path style="fill:#BAA360;" d="M159.803,234.818v-1.985h0.387v1.985H159.803z"/>
				<path style="fill:#BAA360;" d="M162.11,233.545v1.273h-0.387v-1.988h0.301l1.035,1.305v-1.302h0.387v1.985h-0.314
					L162.11,233.545z"/>
				<path style="fill:#BAA360;" d="M166.362,234.48v0.338h-1.381v-1.988h1.355v0.34h-0.969v0.479h0.837v0.313h-0.837v0.519H166.362z
					"/>
				<path style="fill:#BAA360;" d="M170.77,233.352c-0.014-0.014-0.037-0.031-0.072-0.053c-0.034-0.023-0.076-0.045-0.125-0.066
					c-0.05-0.021-0.104-0.039-0.162-0.055c-0.057-0.016-0.116-0.022-0.176-0.022c-0.106,0-0.186,0.02-0.238,0.059
					c-0.053,0.04-0.078,0.095-0.078,0.165c0,0.041,0.01,0.076,0.029,0.103c0.02,0.027,0.048,0.051,0.086,0.071
					c0.037,0.021,0.084,0.039,0.141,0.057c0.057,0.017,0.123,0.034,0.197,0.053c0.098,0.026,0.186,0.055,0.266,0.084
					c0.078,0.029,0.146,0.067,0.201,0.112c0.055,0.044,0.098,0.099,0.127,0.161c0.03,0.063,0.045,0.139,0.045,0.23
					c0,0.107-0.02,0.197-0.061,0.273c-0.039,0.076-0.094,0.137-0.16,0.184c-0.067,0.047-0.146,0.08-0.235,0.102
					c-0.09,0.021-0.183,0.033-0.28,0.033c-0.149,0-0.297-0.023-0.442-0.068c-0.146-0.045-0.276-0.107-0.392-0.189l0.17-0.334
					c0.018,0.018,0.047,0.039,0.092,0.066c0.043,0.027,0.096,0.054,0.155,0.081c0.06,0.026,0.126,0.05,0.198,0.068
					c0.073,0.019,0.148,0.028,0.225,0.028c0.213,0,0.318-0.068,0.318-0.205c0-0.045-0.012-0.082-0.035-0.111
					c-0.025-0.03-0.059-0.057-0.104-0.078c-0.045-0.023-0.1-0.043-0.163-0.063c-0.063-0.018-0.134-0.038-0.213-0.059
					c-0.095-0.025-0.178-0.055-0.247-0.086c-0.07-0.03-0.129-0.066-0.176-0.107c-0.047-0.041-0.082-0.09-0.105-0.146
					c-0.023-0.056-0.035-0.122-0.035-0.198c0-0.102,0.02-0.191,0.057-0.27c0.037-0.078,0.09-0.144,0.155-0.195
					c0.066-0.053,0.143-0.092,0.231-0.119c0.088-0.027,0.182-0.041,0.283-0.041c0.14,0,0.268,0.021,0.386,0.066
					c0.118,0.043,0.22,0.096,0.308,0.154L170.77,233.352z"/>
				<path style="fill:#BAA360;" d="M172.425,234.818v-1.988h0.844c0.091,0,0.176,0.02,0.253,0.058
					c0.077,0.038,0.143,0.089,0.2,0.151c0.057,0.063,0.1,0.133,0.132,0.213c0.032,0.079,0.048,0.159,0.048,0.239
					c0,0.084-0.016,0.166-0.045,0.245c-0.03,0.08-0.072,0.15-0.127,0.211c-0.054,0.063-0.119,0.111-0.195,0.148
					c-0.076,0.038-0.16,0.057-0.252,0.057h-0.471v0.666H172.425z M172.811,233.814h0.448c0.071,0,0.13-0.028,0.178-0.087
					c0.048-0.058,0.071-0.137,0.071-0.235c0-0.05-0.008-0.096-0.023-0.136c-0.015-0.04-0.034-0.074-0.059-0.102
					c-0.024-0.029-0.053-0.05-0.085-0.064c-0.033-0.015-0.066-0.02-0.1-0.02h-0.432V233.814z"/>
				<path style="fill:#BAA360;" d="M174.94,234.818l0.783-1.988h0.314l0.781,1.988h-0.408l-0.183-0.495h-0.697l-0.183,0.495H174.94z
					 M175.882,233.248l-0.286,0.803h0.563L175.882,233.248z"/>
				<path style="fill:#BAA360;" d="M178.034,233.811c0-0.121,0.021-0.241,0.064-0.359c0.043-0.119,0.105-0.225,0.186-0.318
					c0.081-0.094,0.181-0.169,0.298-0.227c0.118-0.059,0.252-0.087,0.404-0.087c0.177,0,0.33,0.04,0.46,0.12
					c0.13,0.08,0.226,0.186,0.287,0.314l-0.297,0.203c-0.023-0.055-0.052-0.102-0.087-0.141c-0.035-0.039-0.074-0.068-0.116-0.092
					c-0.042-0.021-0.085-0.038-0.13-0.049c-0.045-0.01-0.088-0.016-0.129-0.016c-0.092,0-0.172,0.02-0.241,0.059
					c-0.069,0.039-0.126,0.09-0.172,0.153c-0.046,0.063-0.081,0.133-0.105,0.212c-0.022,0.079-0.034,0.159-0.034,0.237
					c0,0.088,0.013,0.172,0.04,0.253c0.027,0.081,0.066,0.153,0.115,0.214c0.049,0.063,0.109,0.111,0.178,0.148
					c0.069,0.037,0.145,0.057,0.227,0.057c0.043,0,0.088-0.006,0.133-0.018c0.044-0.011,0.088-0.028,0.129-0.053
					c0.043-0.023,0.082-0.055,0.117-0.094c0.035-0.038,0.064-0.084,0.086-0.139l0.316,0.182c-0.029,0.075-0.072,0.141-0.13,0.197
					c-0.057,0.058-0.122,0.105-0.194,0.145c-0.072,0.039-0.149,0.069-0.229,0.09c-0.081,0.02-0.159,0.031-0.238,0.031
					c-0.138,0-0.265-0.03-0.38-0.09c-0.114-0.06-0.213-0.138-0.297-0.234c-0.082-0.096-0.146-0.205-0.193-0.327
					C178.058,234.063,178.034,233.938,178.034,233.811z"/>
				<path style="fill:#BAA360;" d="M182.53,234.48v0.338h-1.381v-1.988h1.355v0.34h-0.969v0.479h0.837v0.313h-0.837v0.519H182.53z"
					/>
				<path style="fill:#BAA360;" d="M187.423,232.83v1.988h-0.385v-0.848h-0.901v0.848h-0.387v-1.988h0.387v0.805h0.901v-0.805
					H187.423z"/>
				<path style="fill:#BAA360;" d="M190.337,234.48v0.338h-1.381v-1.988h1.357v0.34h-0.97v0.479h0.838v0.313h-0.838v0.519H190.337z"
					/>
				<path style="fill:#BAA360;" d="M191.768,234.818v-1.988h0.879c0.092,0,0.177,0.02,0.254,0.058
					c0.078,0.038,0.145,0.089,0.201,0.151c0.055,0.063,0.1,0.133,0.131,0.213c0.031,0.079,0.048,0.159,0.048,0.239
					c0,0.129-0.032,0.246-0.097,0.352c-0.064,0.105-0.152,0.182-0.262,0.229l0.467,0.747h-0.436l-0.418-0.666h-0.381v0.666H191.768z
					 M192.155,233.814h0.484c0.035,0,0.068-0.009,0.1-0.025c0.031-0.017,0.057-0.04,0.08-0.068c0.021-0.028,0.039-0.063,0.053-0.102
					c0.014-0.039,0.02-0.081,0.02-0.126c0-0.046-0.008-0.089-0.021-0.129c-0.016-0.039-0.035-0.073-0.061-0.103
					c-0.025-0.028-0.055-0.051-0.088-0.066c-0.032-0.016-0.064-0.023-0.099-0.023h-0.468V233.814z"/>
				<path style="fill:#BAA360;" d="M196.157,234.48v0.338h-1.381v-1.988h1.355v0.34h-0.969v0.479h0.838v0.313h-0.838v0.519H196.157z
					"/>
			</g>
		</g>
		<g>
			<g>
				<polygon style="fill:#BAA360;" points="99.717,234.238 99.717,221.414 122.182,205.007 128.376,209.531 134.582,204.999 
					122.182,195.941 92.396,217.695 92.396,234.238 				"/>
			</g>
			<g>
				<polygon style="fill:#BAA360;" points="123.978,234.238 123.978,221.414 146.443,205.007 158.844,204.999 146.443,195.941 
					116.657,217.695 116.657,234.238 				"/>
			</g>
		</g>
	</g>
</g>
</svg>
