<svg width="293" height="100" viewBox="0 0 293 100" fill="none" xmlns="http://www.w3.org/2000/svg">
<rect x="1" y="1" width="289" height="98" stroke="black" stroke-width="2"/>
<rect x="11" y="11" width="140" height="80" fill="black"/>
<path d="M25.2063 63V33.9091H28.729V59.875H42.2518V63H25.2063ZM56.1154 63.4545C54.1457 63.4545 52.4175 62.9858 50.9308 62.0483C49.4535 61.1108 48.2982 59.7992 47.4648 58.1136C46.641 56.428 46.229 54.4583 46.229 52.2045C46.229 49.9318 46.641 47.9479 47.4648 46.2528C48.2982 44.5578 49.4535 43.2415 50.9308 42.304C52.4175 41.3665 54.1457 40.8977 56.1154 40.8977C58.0851 40.8977 59.8086 41.3665 61.2859 42.304C62.7726 43.2415 63.9279 44.5578 64.7518 46.2528C65.5851 47.9479 66.0018 49.9318 66.0018 52.2045C66.0018 54.4583 65.5851 56.428 64.7518 58.1136C63.9279 59.7992 62.7726 61.1108 61.2859 62.0483C59.8086 62.9858 58.0851 63.4545 56.1154 63.4545ZM56.1154 60.4432C57.6116 60.4432 58.8427 60.0597 59.8086 59.2926C60.7745 58.5256 61.4895 57.517 61.9535 56.267C62.4175 55.017 62.6495 53.6629 62.6495 52.2045C62.6495 50.7462 62.4175 49.3873 61.9535 48.1278C61.4895 46.8684 60.7745 45.8504 59.8086 45.0739C58.8427 44.2973 57.6116 43.9091 56.1154 43.9091C54.6192 43.9091 53.3881 44.2973 52.4222 45.0739C51.4563 45.8504 50.7414 46.8684 50.2773 48.1278C49.8133 49.3873 49.5813 50.7462 49.5813 52.2045C49.5813 53.6629 49.8133 55.017 50.2773 56.267C50.7414 57.517 51.4563 58.5256 52.4222 59.2926C53.3881 60.0597 54.6192 60.4432 56.1154 60.4432ZM71.119 63V41.1818H74.3576V44.4773H74.5849C74.9826 43.3977 75.7023 42.5218 76.744 41.8494C77.7856 41.1771 78.9599 40.8409 80.2667 40.8409C80.5129 40.8409 80.8207 40.8456 81.19 40.8551C81.5593 40.8646 81.8387 40.8788 82.0281 40.8977V44.3068C81.9144 44.2784 81.654 44.2358 81.2468 44.179C80.8491 44.1127 80.4277 44.0795 79.9826 44.0795C78.922 44.0795 77.975 44.3021 77.1417 44.7472C76.3178 45.1828 75.6644 45.7888 75.1815 46.5653C74.708 47.3324 74.4712 48.2083 74.4712 49.1932V63H71.119ZM94.4854 63.4545C92.3832 63.4545 90.5697 62.9905 89.0451 62.0625C87.5299 61.125 86.3604 59.8182 85.5366 58.142C84.7222 56.4564 84.315 54.4962 84.315 52.2614C84.315 50.0265 84.7222 48.0568 85.5366 46.3523C86.3604 44.6383 87.5063 43.303 88.9741 42.3466C90.4513 41.3807 92.1748 40.8977 94.1445 40.8977C95.2809 40.8977 96.4031 41.0871 97.511 41.4659C98.619 41.8447 99.6275 42.4602 100.537 43.3125C101.446 44.1553 102.17 45.2727 102.71 46.6648C103.25 48.0568 103.52 49.7708 103.52 51.8068V53.2273H86.7013V50.3295H100.11C100.11 49.0985 99.8642 48 99.3718 47.0341C98.8888 46.0682 98.1976 45.3059 97.2979 44.7472C96.4078 44.1884 95.3567 43.9091 94.1445 43.9091C92.8093 43.9091 91.654 44.2405 90.6786 44.9034C89.7127 45.5568 88.9693 46.4091 88.4485 47.4602C87.9277 48.5114 87.6673 49.6383 87.6673 50.8409V52.7727C87.6673 54.4205 87.9513 55.8172 88.5195 56.9631C89.0972 58.0994 89.8974 58.9659 90.9201 59.5625C91.9428 60.1496 93.1313 60.4432 94.4854 60.4432C95.3661 60.4432 96.1616 60.3201 96.8718 60.0739C97.5915 59.8182 98.2118 59.4394 98.7326 58.9375C99.2534 58.4261 99.6559 57.7917 99.94 57.0341L103.179 57.9432C102.838 59.0417 102.265 60.0076 101.46 60.8409C100.655 61.6648 99.6606 62.3087 98.4769 62.7727C97.2932 63.2273 95.9627 63.4545 94.4854 63.4545ZM108.619 63V41.1818H111.858V44.5909H112.142C112.596 43.4261 113.33 42.5218 114.343 41.8778C115.357 41.2244 116.574 40.8977 117.994 40.8977C119.433 40.8977 120.631 41.2244 121.588 41.8778C122.554 42.5218 123.306 43.4261 123.846 44.5909H124.074C124.632 43.464 125.47 42.5691 126.588 41.9062C127.705 41.2339 129.045 40.8977 130.608 40.8977C132.558 40.8977 134.154 41.5085 135.395 42.7301C136.635 43.9422 137.255 45.8314 137.255 48.3977V63H133.903V48.3977C133.903 46.7879 133.463 45.6373 132.582 44.946C131.701 44.2547 130.664 43.9091 129.471 43.9091C127.937 43.9091 126.749 44.3731 125.906 45.3011C125.063 46.2197 124.642 47.3845 124.642 48.7955V63H121.233V48.0568C121.233 46.8163 120.83 45.8172 120.025 45.0597C119.22 44.2926 118.183 43.9091 116.914 43.9091C116.043 43.9091 115.229 44.1411 114.471 44.6051C113.723 45.0691 113.117 45.7131 112.653 46.5369C112.199 47.3513 111.971 48.2936 111.971 49.3636V63H108.619Z" fill="white"/>
<path d="M163.614 63V59H168.134V39H163.614V35H176.974V39H172.454V59H176.974V63H163.614ZM182.716 71.8V42H186.876V46.8L186.236 46.44C186.396 45.64 186.849 44.88 187.596 44.16C188.343 43.4133 189.249 42.8133 190.316 42.36C191.409 41.88 192.529 41.64 193.676 41.64C195.569 41.64 197.249 42.1067 198.716 43.04C200.183 43.9733 201.343 45.2533 202.196 46.88C203.049 48.5067 203.476 50.3733 203.476 52.48C203.476 54.56 203.049 56.4267 202.196 58.08C201.369 59.7067 200.223 61 198.756 61.96C197.289 62.8933 195.636 63.36 193.796 63.36C192.569 63.36 191.383 63.12 190.236 62.64C189.089 62.1333 188.116 61.4933 187.316 60.72C186.516 59.9467 186.023 59.1467 185.836 58.32L186.876 57.76V71.8H182.716ZM193.116 59.56C194.343 59.56 195.436 59.2533 196.396 58.64C197.356 58.0267 198.116 57.1867 198.676 56.12C199.236 55.0533 199.516 53.84 199.516 52.48C199.516 51.12 199.236 49.92 198.676 48.88C198.143 47.8133 197.396 46.9733 196.436 46.36C195.476 45.7467 194.369 45.44 193.116 45.44C191.863 45.44 190.756 45.7467 189.796 46.36C188.836 46.9467 188.076 47.7733 187.516 48.84C186.956 49.9067 186.676 51.12 186.676 52.48C186.676 53.84 186.956 55.0533 187.516 56.12C188.076 57.1867 188.836 58.0267 189.796 58.64C190.756 59.2533 191.863 59.56 193.116 59.56ZM214.95 63.4C213.19 63.4 211.604 63.0933 210.19 62.48C208.777 61.8667 207.604 60.96 206.67 59.76L209.47 57.36C210.27 58.2933 211.137 58.9733 212.07 59.4C213.03 59.8 214.11 60 215.31 60C215.79 60 216.23 59.9467 216.63 59.84C217.057 59.7067 217.417 59.52 217.71 59.28C218.03 59.04 218.27 58.76 218.43 58.44C218.59 58.0933 218.67 57.72 218.67 57.32C218.67 56.6267 218.417 56.0667 217.91 55.64C217.644 55.4533 217.217 55.2533 216.63 55.04C216.07 54.8 215.337 54.56 214.43 54.32C212.884 53.92 211.617 53.4667 210.63 52.96C209.644 52.4533 208.884 51.88 208.35 51.24C207.95 50.7333 207.657 50.1867 207.47 49.6C207.284 48.9867 207.19 48.32 207.19 47.6C207.19 46.72 207.377 45.92 207.75 45.2C208.15 44.4533 208.684 43.8133 209.35 43.28C210.044 42.72 210.844 42.2933 211.75 42C212.684 41.7067 213.67 41.56 214.71 41.56C215.697 41.56 216.67 41.6933 217.63 41.96C218.617 42.2267 219.524 42.6133 220.35 43.12C221.177 43.6267 221.87 44.2267 222.43 44.92L220.07 47.52C219.564 47.0133 219.004 46.5733 218.39 46.2C217.804 45.8 217.204 45.4933 216.59 45.28C215.977 45.0667 215.417 44.96 214.91 44.96C214.35 44.96 213.844 45.0133 213.39 45.12C212.937 45.2267 212.55 45.3867 212.23 45.6C211.937 45.8133 211.71 46.08 211.55 46.4C211.39 46.72 211.31 47.08 211.31 47.48C211.337 47.8267 211.417 48.16 211.55 48.48C211.71 48.7733 211.924 49.0267 212.19 49.24C212.484 49.4533 212.924 49.68 213.51 49.92C214.097 50.16 214.844 50.3867 215.75 50.6C217.084 50.9467 218.177 51.3333 219.03 51.76C219.91 52.16 220.604 52.6267 221.11 53.16C221.644 53.6667 222.017 54.2533 222.23 54.92C222.444 55.5867 222.55 56.3333 222.55 57.16C222.55 58.36 222.204 59.44 221.51 60.4C220.844 61.3333 219.937 62.0667 218.79 62.6C217.644 63.1333 216.364 63.4 214.95 63.4ZM234.451 63.4C232.958 63.4 231.651 63.0533 230.531 62.36C229.438 61.6667 228.584 60.6933 227.971 59.44C227.384 58.1867 227.091 56.6933 227.091 54.96V42H231.211V53.84C231.211 55.0667 231.398 56.1333 231.771 57.04C232.171 57.92 232.731 58.6 233.451 59.08C234.198 59.56 235.091 59.8 236.131 59.8C236.904 59.8 237.611 59.68 238.251 59.44C238.891 59.1733 239.438 58.8133 239.891 58.36C240.371 57.9067 240.744 57.36 241.011 56.72C241.278 56.08 241.411 55.3867 241.411 54.64V42H245.531V63H241.411V58.6L242.131 58.12C241.811 59.1067 241.264 60 240.491 60.8C239.744 61.6 238.851 62.24 237.811 62.72C236.771 63.1733 235.651 63.4 234.451 63.4ZM251.23 63V42H255.39V46.48L254.63 46.96C254.843 46.2667 255.176 45.6 255.63 44.96C256.11 44.32 256.683 43.76 257.35 43.28C258.043 42.7733 258.776 42.3733 259.55 42.08C260.35 41.7867 261.163 41.64 261.99 41.64C263.19 41.64 264.243 41.84 265.15 42.24C266.056 42.64 266.803 43.24 267.39 44.04C267.976 44.84 268.403 45.84 268.67 47.04L268.03 46.88L268.31 46.2C268.603 45.5867 269.003 45.0133 269.51 44.48C270.043 43.92 270.643 43.4267 271.31 43C271.976 42.5733 272.683 42.24 273.43 42C274.176 41.76 274.91 41.64 275.63 41.64C277.203 41.64 278.496 41.96 279.51 42.6C280.55 43.24 281.323 44.2133 281.83 45.52C282.363 46.8267 282.63 48.4533 282.63 50.4V63H278.47V50.64C278.47 49.44 278.31 48.4667 277.99 47.72C277.696 46.9467 277.243 46.3733 276.63 46C276.016 45.6267 275.23 45.44 274.27 45.44C273.523 45.44 272.816 45.5733 272.15 45.84C271.51 46.08 270.95 46.4267 270.47 46.88C269.99 47.3333 269.616 47.8667 269.35 48.48C269.083 49.0667 268.95 49.72 268.95 50.44V63H264.79V50.56C264.79 49.4667 264.63 48.5467 264.31 47.8C263.99 47.0267 263.523 46.44 262.91 46.04C262.296 45.64 261.55 45.44 260.67 45.44C259.923 45.44 259.23 45.5733 258.59 45.84C257.95 46.08 257.39 46.4267 256.91 46.88C256.43 47.3067 256.056 47.8267 255.79 48.44C255.523 49.0267 255.39 49.6667 255.39 50.36V63H251.23Z" fill="black"/>
</svg>
