<svg width="105" height="40" viewBox="0 0 105 40" fill="none" xmlns="http://www.w3.org/2000/svg">
<path d="M45.253 34.615V28.166H48.005C49.232 28.166 49.845 28.682 49.845 29.713C49.845 30.552 49.245 31.173 48.046 31.576L50.261 34.615H49.159L47.107 31.715V31.17C48.34 30.975 48.956 30.5 48.956 29.749C48.956 29.153 48.614 28.855 47.929 28.855H46.088V34.615H45.253Z" fill="#181C21"/>
<path d="M55.356 28.166V28.842H51.973V31.008H55.199V31.684H51.973V33.94H55.424V34.616H51.139V28.167L55.356 28.166Z" fill="#181C21"/>
<path d="M56.899 34.615H56.034L58.771 28.166H59.696L62.448 34.615H61.522L60.688 32.586H58.555L58.784 31.91H60.408L59.203 28.986L56.899 34.615Z" fill="#181C21"/>
<path d="M64.161 28.166V33.939H67.536V34.615H63.327V28.166H64.161Z" fill="#181C21"/>
<path d="M75.001 28.166V28.842H71.618V31.008H74.843V31.684H71.618V33.94H75.0679V34.616H70.783V28.167L75.001 28.166Z" fill="#181C21"/>
<path d="M76.241 34.391V33.623C76.917 33.864 77.648 33.984 78.432 33.984C79.541 33.984 80.097 33.578 80.097 32.766C80.097 32.074 79.688 31.728 78.87 31.728H78.04C76.69 31.728 76.016 31.142 76.016 29.969C76.016 28.737 76.88 28.12 78.609 28.12C79.361 28.12 80.06 28.21 80.707 28.39V29.158C80.061 28.918 79.361 28.797 78.609 28.797C77.437 28.797 76.851 29.188 76.851 29.97C76.851 30.662 77.247 31.008 78.04 31.008H78.87C80.245 31.008 80.933 31.594 80.933 32.767C80.933 34.03 80.099 34.661 78.433 34.661C77.648 34.66 76.917 34.57 76.241 34.391Z" fill="#181C21"/>
<path d="M86.503 28.166V28.842H84.473V34.615H83.638V28.842H81.609V28.166H86.503Z" fill="#181C21"/>
<path d="M87.03 34.615H86.163L88.901 28.166H89.826L92.577 34.615H91.653L90.818 32.586H88.684L88.914 31.91H90.537L89.334 28.986L87.03 34.615Z" fill="#181C21"/>
<path d="M97.134 28.166V28.842H95.105V34.615H94.27V28.842H92.24V28.166H97.134Z" fill="#181C21"/>
<path d="M102.343 28.166V28.842H98.96V31.008H102.185V31.684H98.96V33.94H102.411V34.616H98.126V28.167L102.343 28.166Z" fill="#181C21"/>
<path d="M42.505 37.414L42.995 38.371L43.494 37.414H43.911L43.188 38.708V39.402H42.805V38.702L42.084 37.414H42.505Z" fill="#181C21"/>
<path d="M45.944 39.416C45.804 39.416 45.676 39.388 45.561 39.331C45.445 39.273 45.345 39.198 45.262 39.103C45.179 39.009 45.116 38.902 45.071 38.781C45.026 38.659 45.003 38.535 45.003 38.408C45.003 38.275 45.027 38.148 45.075 38.027C45.122 37.906 45.188 37.798 45.274 37.705C45.358 37.611 45.459 37.537 45.575 37.482C45.69 37.427 45.817 37.4 45.953 37.4C46.093 37.4 46.221 37.429 46.337 37.488C46.452 37.547 46.552 37.624 46.634 37.719C46.716 37.815 46.779 37.923 46.823 38.044C46.868 38.166 46.891 38.289 46.891 38.414C46.891 38.547 46.867 38.673 46.819 38.793C46.772 38.914 46.706 39.02 46.622 39.112C46.538 39.205 46.438 39.279 46.323 39.334C46.207 39.389 46.081 39.416 45.944 39.416ZM45.393 38.408C45.393 38.494 45.405 38.577 45.43 38.657C45.455 38.738 45.492 38.808 45.539 38.87C45.586 38.932 45.644 38.981 45.714 39.018C45.783 39.056 45.862 39.074 45.949 39.074C46.039 39.074 46.117 39.055 46.185 39.017C46.253 38.978 46.311 38.927 46.357 38.865C46.404 38.801 46.44 38.73 46.464 38.65C46.487 38.57 46.5 38.49 46.5 38.408C46.5 38.322 46.487 38.239 46.461 38.158C46.435 38.078 46.397 38.008 46.351 37.945C46.302 37.885 46.246 37.836 46.177 37.799C46.109 37.763 46.032 37.744 45.946 37.744C45.857 37.744 45.777 37.764 45.71 37.802C45.642 37.84 45.584 37.891 45.536 37.953C45.488 38.016 45.453 38.086 45.428 38.166C45.405 38.245 45.393 38.326 45.393 38.408Z" fill="#181C21"/>
<path d="M49.148 39.074C49.24 39.074 49.317 39.056 49.379 39.018C49.442 38.981 49.492 38.932 49.529 38.872C49.568 38.812 49.595 38.743 49.611 38.666C49.627 38.589 49.634 38.509 49.634 38.427V37.413H50.018V38.427C50.018 38.564 50.001 38.691 49.969 38.811C49.937 38.931 49.885 39.035 49.815 39.124C49.746 39.214 49.655 39.284 49.544 39.337C49.435 39.39 49.303 39.415 49.149 39.415C48.991 39.415 48.856 39.388 48.745 39.333C48.634 39.278 48.544 39.205 48.475 39.114C48.406 39.024 48.356 38.919 48.326 38.8C48.295 38.68 48.279 38.556 48.279 38.427V37.413H48.666V38.427C48.666 38.511 48.674 38.591 48.689 38.669C48.705 38.747 48.732 38.815 48.771 38.875C48.808 38.935 48.859 38.983 48.92 39.019C48.983 39.057 49.059 39.074 49.148 39.074Z" fill="#181C21"/>
<path d="M51.526 39.402V37.414H52.405C52.497 37.414 52.581 37.434 52.659 37.471C52.736 37.51 52.804 37.561 52.859 37.623C52.915 37.686 52.959 37.756 52.991 37.836C53.022 37.914 53.038 37.994 53.038 38.074C53.038 38.203 53.007 38.32 52.942 38.426C52.878 38.532 52.79 38.608 52.68 38.655L53.147 39.403H52.711L52.294 38.737H51.913V39.403L51.526 39.402ZM51.913 38.396H52.397C52.432 38.396 52.465 38.388 52.497 38.371C52.527 38.355 52.554 38.332 52.576 38.303C52.599 38.275 52.616 38.24 52.63 38.202C52.643 38.163 52.65 38.12 52.65 38.075C52.65 38.029 52.642 37.986 52.628 37.946C52.613 37.907 52.593 37.874 52.567 37.845C52.543 37.816 52.513 37.794 52.48 37.778C52.447 37.762 52.414 37.755 52.38 37.755H51.913V38.396Z" fill="#181C21"/>
<path d="M57.732 37.753H57.1V39.402H56.713V37.753H56.077V37.414H57.732V37.753Z" fill="#181C21"/>
<path d="M58.716 39.402L59.499 37.414H59.813L60.594 39.402H60.186L60.003 38.906H59.306L59.123 39.402H58.716ZM59.657 37.831L59.371 38.635H59.934L59.657 37.831Z" fill="#181C21"/>
<path d="M63.261 39.178C63.108 39.337 62.931 39.416 62.732 39.416C62.605 39.416 62.486 39.389 62.373 39.332C62.262 39.276 62.164 39.201 62.081 39.107C61.998 39.012 61.933 38.904 61.885 38.781C61.838 38.657 61.814 38.529 61.814 38.396C61.814 38.26 61.838 38.132 61.885 38.011C61.933 37.891 61.999 37.785 62.084 37.695C62.169 37.605 62.269 37.533 62.383 37.479C62.498 37.425 62.623 37.4 62.758 37.4C62.939 37.4 63.094 37.439 63.223 37.517C63.352 37.595 63.449 37.701 63.514 37.833L63.225 38.046C63.177 37.946 63.11 37.871 63.026 37.819C62.94 37.766 62.846 37.741 62.745 37.741C62.662 37.741 62.588 37.759 62.522 37.794C62.456 37.829 62.399 37.878 62.352 37.94C62.305 38.002 62.268 38.073 62.243 38.153C62.217 38.233 62.204 38.318 62.204 38.408C62.204 38.502 62.218 38.589 62.246 38.67C62.274 38.751 62.313 38.822 62.363 38.881C62.414 38.942 62.473 38.988 62.542 39.024C62.609 39.058 62.685 39.075 62.767 39.075C62.951 39.075 63.116 38.985 63.263 38.803V38.663H62.863V38.38H63.582V39.402H63.264V39.178H63.261Z" fill="#181C21"/>
<path d="M65.033 39.402V37.414H65.42V39.063H66.434V39.402H65.033Z" fill="#181C21"/>
<path d="M67.803 39.402V37.416H68.19V39.402H67.803Z" fill="#181C21"/>
<path d="M70.11 38.128V39.402H69.723V37.414H70.024L71.059 38.719V37.416H71.446V39.402H71.132L70.11 38.128Z" fill="#181C21"/>
<path d="M74.362 39.063V39.402H72.981V37.414H74.336V37.753H73.367V38.232H74.2039V38.545H73.367V39.064L74.362 39.063Z" fill="#181C21"/>
<path d="M78.77 37.936C78.756 37.922 78.733 37.905 78.698 37.882C78.664 37.86 78.622 37.838 78.573 37.817C78.523 37.796 78.469 37.777 78.411 37.762C78.354 37.746 78.295 37.739 78.235 37.739C78.129 37.739 78.049 37.759 77.997 37.798C77.944 37.838 77.919 37.894 77.919 37.964C77.919 38.005 77.929 38.039 77.948 38.066C77.968 38.093 77.996 38.117 78.034 38.138C78.071 38.159 78.118 38.177 78.175 38.194C78.232 38.211 78.298 38.228 78.372 38.248C78.47 38.273 78.558 38.302 78.638 38.332C78.716 38.361 78.784 38.398 78.839 38.443C78.894 38.488 78.937 38.542 78.966 38.604C78.996 38.667 79.011 38.744 79.011 38.835C79.011 38.941 78.991 39.032 78.95 39.108C78.911 39.183 78.856 39.245 78.79 39.292C78.723 39.338 78.644 39.372 78.555 39.394C78.465 39.415 78.372 39.426 78.275 39.426C78.126 39.426 77.978 39.404 77.833 39.359C77.687 39.314 77.557 39.252 77.441 39.169L77.611 38.836C77.629 38.853 77.658 38.875 77.703 38.901C77.746 38.928 77.799 38.955 77.858 38.982C77.918 39.009 77.984 39.033 78.056 39.05C78.129 39.07 78.204 39.079 78.281 39.079C78.494 39.079 78.599 39.011 78.599 38.874C78.599 38.829 78.587 38.792 78.564 38.763C78.539 38.732 78.505 38.706 78.46 38.684C78.415 38.662 78.36 38.641 78.297 38.622C78.234 38.603 78.163 38.583 78.084 38.563C77.989 38.537 77.906 38.508 77.837 38.477C77.767 38.446 77.708 38.411 77.661 38.37C77.614 38.329 77.579 38.28 77.556 38.224C77.533 38.169 77.521 38.103 77.521 38.026C77.521 37.925 77.541 37.836 77.578 37.757C77.615 37.679 77.668 37.612 77.733 37.561C77.799 37.509 77.876 37.469 77.964 37.442C78.052 37.416 78.146 37.402 78.247 37.402C78.387 37.402 78.515 37.423 78.633 37.467C78.751 37.511 78.853 37.563 78.941 37.622L78.77 37.936Z" fill="#181C21"/>
<path d="M80.425 39.402V37.414H81.269C81.36 37.414 81.445 37.434 81.522 37.471C81.599 37.51 81.665 37.561 81.722 37.623C81.779 37.686 81.822 37.756 81.854 37.836C81.886 37.914 81.902 37.994 81.902 38.074C81.902 38.158 81.886 38.24 81.857 38.32C81.827 38.399 81.785 38.469 81.73 38.531C81.676 38.592 81.611 38.642 81.535 38.679C81.459 38.716 81.375 38.736 81.283 38.736H80.812V39.402H80.425ZM80.811 38.396H81.259C81.33 38.396 81.389 38.368 81.437 38.31C81.485 38.251 81.508 38.173 81.508 38.074C81.508 38.024 81.5 37.978 81.485 37.939C81.47 37.898 81.451 37.865 81.426 37.836C81.401 37.807 81.373 37.786 81.341 37.773C81.308 37.759 81.275 37.752 81.241 37.752H80.809V38.396H80.811Z" fill="#181C21"/>
<path d="M82.94 39.402L83.723 37.414H84.037L84.818 39.402H84.41L84.227 38.906H83.53L83.347 39.402H82.94ZM83.882 37.831L83.596 38.635H84.159L83.882 37.831Z" fill="#181C21"/>
<path d="M86.034 38.395C86.034 38.274 86.055 38.153 86.098 38.035C86.141 37.917 86.203 37.81 86.284 37.718C86.365 37.624 86.465 37.548 86.582 37.491C86.7 37.433 86.834 37.403 86.986 37.403C87.163 37.403 87.316 37.444 87.446 37.524C87.576 37.604 87.672 37.709 87.733 37.837L87.436 38.041C87.413 37.985 87.384 37.937 87.349 37.9C87.314 37.861 87.275 37.831 87.233 37.808C87.191 37.787 87.148 37.769 87.103 37.759C87.058 37.749 87.015 37.743 86.974 37.743C86.882 37.743 86.802 37.763 86.733 37.801C86.664 37.84 86.607 37.891 86.561 37.954C86.515 38.017 86.48 38.088 86.456 38.166C86.434 38.246 86.422 38.325 86.422 38.403C86.422 38.491 86.435 38.576 86.462 38.656C86.489 38.738 86.528 38.809 86.577 38.871C86.626 38.933 86.686 38.982 86.755 39.019C86.824 39.056 86.9 39.076 86.982 39.076C87.025 39.076 87.07 39.07 87.115 39.058C87.159 39.046 87.203 39.029 87.244 39.005C87.287 38.981 87.326 38.949 87.361 38.911C87.396 38.872 87.425 38.826 87.447 38.772L87.763 38.954C87.734 39.028 87.691 39.095 87.633 39.151C87.576 39.208 87.511 39.257 87.439 39.296C87.367 39.335 87.29 39.364 87.21 39.386C87.129 39.406 87.051 39.416 86.972 39.416C86.834 39.416 86.707 39.386 86.592 39.327C86.478 39.266 86.379 39.188 86.295 39.093C86.213 38.997 86.149 38.888 86.102 38.765C86.058 38.646 86.034 38.521 86.034 38.395Z" fill="#181C21"/>
<path d="M90.53 39.063V39.402H89.149V37.414H90.504V37.753H89.535V38.232H90.372V38.545H89.535V39.064L90.53 39.063Z" fill="#181C21"/>
<path d="M95.423 37.414V39.402H95.038V38.553H94.137V39.402H93.75V37.414H94.137V38.218H95.038V37.414H95.423Z" fill="#181C21"/>
<path d="M98.337 39.063V39.402H96.956V37.414H98.313V37.753H97.343V38.232H98.181V38.545H97.343V39.064L98.337 39.063Z" fill="#181C21"/>
<path d="M99.768 39.402V37.414H100.647C100.739 37.414 100.824 37.434 100.901 37.471C100.979 37.51 101.046 37.561 101.102 37.623C101.157 37.686 101.202 37.756 101.233 37.836C101.264 37.914 101.281 37.994 101.281 38.074C101.281 38.203 101.249 38.32 101.184 38.426C101.12 38.532 101.032 38.608 100.922 38.655L101.389 39.403H100.953L100.535 38.737H100.154V39.403L99.768 39.402ZM100.155 38.396H100.639C100.674 38.396 100.707 38.388 100.739 38.371C100.77 38.355 100.796 38.332 100.819 38.303C100.84 38.275 100.858 38.24 100.872 38.202C100.886 38.163 100.892 38.12 100.892 38.075C100.892 38.029 100.884 37.986 100.871 37.946C100.855 37.907 100.836 37.874 100.81 37.845C100.785 37.816 100.755 37.794 100.722 37.778C100.69 37.762 100.658 37.755 100.623 37.755H100.155V38.396Z" fill="#181C21"/>
<path d="M104.157 39.063V39.402H102.776V37.414H104.131V37.753H103.162V38.232H104V38.545H103.162V39.064L104.157 39.063Z" fill="#181C21"/>
<path d="M7.717 38.822V25.998L30.182 9.59002L36.376 14.115L42.582 9.58202L30.182 0.525024L0.395996 22.279V38.822H7.717Z" fill="#181C21"/>
<path d="M31.978 38.822V25.998L54.443 9.59002L66.844 9.58202L54.443 0.525024L24.657 22.279V38.822H31.978Z" fill="#181C21"/>
</svg>
